<svg viewBox="0 0 55 55" fill="none" xmlns="http://www.w3.org/2000/svg">
  <g width="55" height="55">
    <path id="rotateIcon" d="M43.4455 54.4533C43.786 54.3043 45.063 52.9528 49.0325 48.547C51.8738 45.397 54.2576 42.7153 54.3321 42.5769C54.4066 42.4279 54.4918 42.1087 54.5237 41.8639C54.7152 40.4805 53.6404 39.3311 52.1718 39.3311C51.0757 39.3311 50.9586 39.4269 47.6916 43.0771L44.7225 46.3974L44.6586 43.0452C44.6054 40.4273 44.5416 39.3737 44.3607 38.1605C43.6689 33.5632 42.1365 29.3703 39.7314 25.4967C38.2416 23.1129 36.8688 21.4208 34.6659 19.2925C30.5794 15.3337 25.6203 12.5774 20.0865 11.1833C17.1494 10.449 15.6808 10.2788 11.6369 10.1936L8.34851 10.1191L11.722 7.09685C14.2016 4.86205 15.138 3.95749 15.2977 3.62759C15.5744 3.06357 15.5744 2.18029 15.3083 1.59499C14.8614 0.605294 13.4247 0.0944835 12.3711 0.530801C12.169 0.615936 9.42334 2.96779 6.2627 5.75597C-0.101154 11.3642 -0.00537651 11.2578 0.111684 12.3646C0.186177 13.0669 0.53736 13.7161 1.16523 14.2695C1.42064 14.493 3.95341 16.7916 6.81608 19.3669C9.6681 21.9529 12.1796 24.1452 12.4031 24.2516C13.0309 24.5496 13.9461 24.4538 14.574 24.0281C15.17 23.6237 15.6169 22.8043 15.6169 22.1338C15.6169 21.208 15.287 20.8355 11.7858 17.7068L8.54006 14.8016L9.60425 14.7484C11.2431 14.6632 14.9039 14.8122 16.149 15.0144C23.5345 16.185 30.058 20.0906 34.4318 25.9649C37.4009 29.945 39.1781 34.3082 39.8379 39.2779C39.9869 40.4698 40.1784 46.3548 40.0613 46.3548C40.0188 46.3548 38.7098 44.9288 37.1455 43.1941C35.5811 41.4489 34.2296 39.959 34.1338 39.8845C33.2931 39.1609 31.8458 39.1715 31.0689 39.8952C30.3879 40.523 30.175 41.7469 30.5901 42.5663C30.6965 42.7791 33.0909 45.5034 35.8897 48.6109C39.7847 52.9208 41.1043 54.3043 41.4235 54.4533C41.9769 54.7087 42.8921 54.7087 43.4455 54.4533Z" fill="black" />
  </g>
</svg>